<svg width="198" height="170" viewBox="0 0 198 170" fill="none" xmlns="http://www.w3.org/2000/svg">
<rect width="198" height="170" fill="white"/>
<path fill-rule="evenodd" clip-rule="evenodd" d="M90.4362 37.8121L91.7517 24H108.852L110.826 37.8121C112.36 37.5928 116.219 37.8121 119.376 40.443L130.557 31.8926L143.054 43.7315L133.846 54.9128C134.723 56.4474 136.477 60.043 136.477 62.1477L152.262 64.1208V81.8792H136.477C136.257 83.8523 135.424 88.1933 133.846 89.7718L143.054 101.611L130.557 113.45L119.376 104.899C117.622 105.557 113.456 107.004 110.826 107.53L108.852 122H90.4362V107.53C88.4631 107.311 84.1221 106.478 82.5436 104.899L69.3893 113.45L58.2081 101.611L66.7584 91.745C65.6622 89.9911 63.4698 85.8255 63.4698 83.1946L49 81.8792V64.1208L63.4698 62.1477C63.689 60.613 64.6537 57.2805 66.7584 56.2282L58.2081 43.7315L69.3893 31.8926L82.5436 41.7584C83.8591 40.443 87.2792 37.8121 90.4362 37.8121ZM100.96 93.7181C112.947 93.7181 122.664 84.0006 122.664 72.0134C122.664 60.0262 112.947 50.3087 100.96 50.3087C88.9726 50.3087 79.255 60.0262 79.255 72.0134C79.255 84.0006 88.9726 93.7181 100.96 93.7181Z" fill="#4C6CBC"/>
<circle cx="145" cy="116" r="46" fill="white"/>
<rect x="141" y="100" width="8" height="30" fill="#4C6CBC"/>
<rect x="129" y="119" width="8" height="30" transform="rotate(-90 129 119)" fill="#4C6CBC"/>
</svg>
