<svg width="198" height="170" viewBox="0 0 198 170" fill="none" xmlns="http://www.w3.org/2000/svg">
<rect width="198" height="170" fill="white"/>
<mask id="path-2-inside-1_99_72" fill="white">
<rect x="51" y="43.3975" width="95.7305" height="72.6231" rx="2"/>
</mask>
<rect x="51" y="43.3975" width="95.7305" height="72.6231" rx="2" stroke="#43DD5C" stroke-width="10" mask="url(#path-2-inside-1_99_72)"/>
<path d="M96.3732 88.3971L54.154 49.7056C54.2039 46.1376 60.8677 47.1608 62.3544 47.1816L98.6967 81.7382L138.051 47.1816C142.704 46.1761 147.355 49.0407 146.882 50.9671L100.833 88.4594C99.386 89.8667 97.2568 89.0042 96.3732 88.3971Z" fill="#43DD5C"/>
<circle cx="141.836" cy="57.2752" r="35.325" fill="white"/>
<path d="M132.567 58.7616V57.0854L137.504 49.2843H138.902V51.6707H138.05L134.726 56.9377V57.0286H141.618V58.7616H132.567ZM138.118 60.9207V58.2502L138.141 57.5002V49.2843H140.129V60.9207H138.118ZM147.479 61.0797C146.721 61.0797 146.043 60.9377 145.445 60.6536C144.846 60.3657 144.371 59.9718 144.018 59.4718C143.67 58.9718 143.484 58.3998 143.462 57.7559H145.507C145.545 58.2332 145.751 58.6233 146.126 58.9263C146.501 59.2256 146.952 59.3752 147.479 59.3752C147.891 59.3752 148.259 59.2805 148.581 59.0911C148.903 58.9017 149.157 58.6385 149.342 58.3013C149.528 57.9642 149.619 57.5797 149.615 57.1479C149.619 56.7085 149.526 56.3184 149.337 55.9775C149.147 55.6366 148.888 55.3695 148.558 55.1763C148.229 54.9794 147.85 54.8809 147.422 54.8809C147.073 54.8771 146.731 54.9415 146.393 55.0741C146.056 55.2066 145.789 55.3809 145.592 55.5968L143.689 55.2843L144.297 49.2843H151.047V51.0457H146.041L145.706 54.1309H145.774C145.99 53.8771 146.295 53.6669 146.689 53.5002C147.083 53.3297 147.515 53.2445 147.984 53.2445C148.689 53.2445 149.318 53.4112 149.871 53.7445C150.424 54.0741 150.859 54.5286 151.177 55.1082C151.496 55.6877 151.655 56.3506 151.655 57.0968C151.655 57.8657 151.477 58.5513 151.121 59.1536C150.768 59.7521 150.278 60.2237 149.649 60.5684C149.024 60.9093 148.301 61.0797 147.479 61.0797Z" fill="#D33636"/>
</svg>
