<svg width="198" height="170" viewBox="0 0 198 170" fill="none" xmlns="http://www.w3.org/2000/svg">
<rect width="198" height="170" fill="white"/>
<path d="M79.4276 97.9819L53.3915 111L60.2105 96.742C58.764 97.1553 54.0114 97.7339 46.5725 96.742C39.1336 95.75 37.2738 91.3694 37.2738 89.3031C37.0672 74.4253 36.7779 42.686 37.2738 34.7512C37.7698 26.8163 42.4397 25.6592 44.7127 26.0725H138.319C145.758 26.0725 148.031 31.8583 148.238 34.7512V88.0634C148.238 95.0063 141.625 97.5686 138.319 97.9819H79.4276Z" stroke="#2D2C2C" stroke-width="6"/>
<rect x="58.0769" y="58.2354" width="59.5113" height="7.43891" rx="3" fill="#01C6FB"/>
<rect x="56.8371" y="39.6379" width="27.276" height="7.43891" rx="3" fill="#01C6FB"/>
<rect x="58.0769" y="75.5928" width="57.0316" height="7.43891" rx="3" fill="#01C6FB"/>
<circle cx="148" cy="115" r="46" fill="white"/>
<circle cx="147.5" cy="114.5" r="37" fill="white" stroke="#2D2C2C" stroke-width="7"/>
<path d="M144 96.08L129 111.08L145 126.08C149 126.88 149.333 123.747 149 122.08L143.5 114.58H150C154.4 114.98 157.167 118.413 158 120.08C160.8 123.28 161.167 130.08 161 133.08C163 135.48 165.833 134.08 167 133.08C167.8 128.68 165.667 120.913 164.5 117.58C161.5 111.08 155 109.08 153.5 108.58C152.3 108.18 146.333 107.413 143.5 107.08L149 101.08C150.2 96.28 146.167 95.7467 144 96.08Z" fill="#05B5E5"/>
</svg>
