<svg width="198" height="170" viewBox="0 0 198 170" fill="none" xmlns="http://www.w3.org/2000/svg">
<rect width="198" height="170" fill="white"/>
<path d="M85.4276 118.982L59.3915 132L66.2105 117.742C64.764 118.155 60.0114 118.734 52.5725 117.742C45.1336 116.75 43.2738 112.369 43.2738 110.303C43.0672 95.4253 42.7779 63.686 43.2738 55.7512C43.7698 47.8163 48.4397 46.6592 50.7127 47.0725H144.319C151.758 47.0725 154.031 52.8583 154.238 55.7512V109.063C154.238 116.006 147.625 118.569 144.319 118.982H85.4276Z" fill="#62DBFB"/>
<rect x="64.0769" y="79.2354" width="59.5113" height="7.43891" rx="3" fill="#01C6FB"/>
<rect x="62.8371" y="60.6379" width="27.276" height="7.43891" rx="3" fill="#01C6FB"/>
<rect x="64.0769" y="96.5928" width="57.0316" height="7.43891" rx="3" fill="#01C6FB"/>
<path d="M171 45.0461C188.2 73.0461 178.167 106.046 171 119.046C165.4 121.046 166 117.213 167 115.046C182.2 81.8461 172.333 56.5461 165.5 48.0461C151.1 22.8461 125.833 15.2128 115 14.5461C93 11.3461 75.5 20.2128 69.5 25.0461L77.5 29.5461C79.5 33.1461 76.6667 34.0461 75 34.0461L61 26.0461L64 10.546C66.4 7.74602 68.6667 9.37936 69.5 10.546L68 19.5461C81.2 9.14613 104.833 8.54613 115 9.54613C143.8 9.94613 164.333 33.3795 171 45.0461Z" fill="#8795DE"/>
<path d="M25.4971 125.56C8.29707 97.5603 18.3304 64.5603 25.4971 51.5603C31.0971 49.5603 30.4971 53.3936 29.4971 55.5603C14.2971 88.7603 24.1637 114.06 30.9971 122.56C45.3971 147.76 70.6637 155.394 81.4971 156.06C103.497 159.26 120.997 150.394 126.997 145.56L118.997 141.06C116.997 137.46 119.83 136.56 121.497 136.56L135.497 144.56L132.497 160.06C130.097 162.86 127.83 161.227 126.997 160.06L128.497 151.06C115.297 161.46 91.6637 162.06 81.4971 161.06C52.6971 160.66 32.1637 137.227 25.4971 125.56Z" fill="#8795DE"/>
</svg>
